<svg width="128" height="128" viewBox="0 0 128 128" fill="none" xmlns="http://www.w3.org/2000/svg">
<rect width="128" height="128" fill="white"/>
<rect width="128" height="128" fill="#75AB2E"/>
<path fill-rule="evenodd" clip-rule="evenodd" d="M49.4335 22.2077C49.8832 23.8665 50.5466 24.9881 51.5546 25.6826C53.7427 24.1871 56.1744 23.0605 58.6934 22.4307C61.855 21.661 69.0027 21.6335 71.5319 22.4307C73.5364 23.045 75.3746 24.1227 76.9843 25.5674C77.2546 25.3329 77.501 25.018 77.7068 24.6135C78.5966 22.8642 79.36 20.8358 80.1233 18.8074C80.4156 18.3384 80.505 17.7932 80.5944 17.2479C80.6838 16.7026 80.7732 16.1573 81.0655 15.6884C81.5496 13.7865 83.072 13.4331 84.5421 14.4495C86.95 16.0503 88.2413 18.1572 89.7856 20.8225C90.2916 21.9392 89.9863 22.7506 88.8696 23.2566C87.3472 23.61 86.2305 24.116 84.8346 24.7486C83.7179 25.2546 82.322 25.8871 81.4583 26.9515C80.6881 27.665 80.2007 28.3491 79.9518 29.0239C82.1261 32.2882 83.502 36.4384 83.7655 40.9874C84.013 45.551 82.9958 49.0699 80.9614 50.6369C80.0267 51.3516 79.6418 51.4341 77.4975 51.5166C73.3738 51.6815 71.4769 50.3345 71.4769 47.173C71.4494 45.0286 70.8171 41.7022 70.1298 40.1352C69.4426 38.5957 67.9031 36.9187 66.7759 36.4238C65.7037 35.984 64.7965 36.2864 63.4769 37.4685C61.2227 39.5029 59.958 42.6369 59.7381 46.7606C59.6007 49.3448 59.6557 49.6472 60.4529 51.819C61.6075 55.008 63.5869 58.6094 68.3154 66.252C75.2707 77.5234 78.0473 82.9667 79.5869 88.2726C80.9614 93.0836 81.0164 98.7743 79.6693 102.348C77.7174 107.599 73.0164 111.503 66.7484 113.015C64.1917 113.647 58.611 113.785 55.9993 113.29C49.6213 112.08 45.1402 108.149 44.0131 102.761C43.8481 101.963 43.7107 100.259 43.7107 98.9667C43.7107 96.6574 43.7382 96.575 44.6454 95.6677C45.5251 94.788 45.6626 94.733 47.5595 94.733H49.5663L51.7931 97.0423C53.0028 98.3069 54.5697 99.6265 55.257 99.9564C56.9065 100.781 59.5457 101.001 60.7278 100.396C63.257 99.0767 62.5422 97.1798 54.1024 83.1592C43.5457 65.6747 40.6042 57.4272 41.044 46.6506C41.2365 41.3723 42.0337 38.1558 44.0681 34.0871C45.059 32.1245 46.3932 30.2966 47.9731 28.6835C47.8998 28.5101 47.8206 28.3263 47.7363 28.1304L47.7361 28.1299C46.5942 26.0259 45.2256 24.4915 42.9474 23.5847C41.8083 23.1313 40.3845 22.5645 39.074 21.713C38.0482 20.9748 37.7054 20.1786 38.2721 18.7547C39.6904 16.0204 41.7363 14.1956 44.4098 13.2804C46.0023 12.5947 47.4262 13.1614 47.9985 15.0387C48.3861 16.6128 48.666 18.144 48.9309 19.5925C49.0968 20.5 49.2567 21.375 49.4335 22.2077Z" fill="#323232"/>
<path fill-rule="evenodd" clip-rule="evenodd" d="M51.9319 23.8307C52.3816 25.4895 53.045 26.6111 54.053 27.3056C56.2411 25.8101 58.6728 24.6834 61.1919 24.0537C64.3534 23.2839 71.5011 23.2564 74.0303 24.0537C76.0349 24.668 77.873 25.7457 79.4827 27.1904C79.7531 26.9559 79.9994 26.6409 80.2052 26.2364C81.0951 24.4872 81.8584 22.4587 82.6217 20.4303C82.914 19.9614 83.0034 19.4161 83.0928 18.8708C83.1822 18.3256 83.2716 17.7803 83.5639 17.3113C84.048 15.4094 85.5704 15.0561 87.0405 16.0724C89.4485 17.6733 90.7397 19.7802 92.284 22.4454C92.79 23.5621 92.4847 24.3735 91.368 24.8795C89.8456 25.2329 88.7289 25.739 87.333 26.3715C86.2163 26.8775 84.8204 27.5101 83.9567 28.5745C83.1865 29.288 82.6991 29.9721 82.4502 30.6468C84.6245 33.9111 86.0005 38.0613 86.264 42.6103C86.5114 47.1739 85.4942 50.6928 83.4598 52.2598C82.5251 52.9746 82.1403 53.0571 79.9959 53.1395C75.8722 53.3045 73.9753 51.9574 73.9753 48.7959C73.9478 46.6516 73.3155 43.3251 72.6283 41.7581C71.941 40.2186 70.4015 38.5416 69.2743 38.0468C68.2022 37.6069 67.2949 37.9093 65.9754 39.0914C63.7211 41.1258 62.4565 44.2598 62.2365 48.3835C62.0991 50.9677 62.1541 51.2701 62.9513 53.4419C64.1059 56.6309 66.0853 60.2323 70.8138 67.8749C77.7691 79.1464 80.5458 84.5897 82.0853 89.8955C83.4598 94.7065 83.5148 100.397 82.1677 103.971C80.2159 109.222 75.5148 113.126 69.2468 114.638C66.6901 115.27 61.1094 115.408 58.4977 114.913C52.1197 113.703 47.6386 109.772 46.5115 104.383C46.3465 103.586 46.2091 101.882 46.2091 100.59C46.2091 98.2804 46.2366 98.1979 47.1438 97.2907C48.0235 96.411 48.161 96.356 50.0579 96.356H52.0647L54.2915 98.6653C55.5012 99.9299 57.0682 101.249 57.7554 101.579C59.4049 102.404 62.0441 102.624 63.2262 102.019C65.7554 100.7 65.0406 98.8027 56.6008 84.7821C46.0441 67.2976 43.1026 59.0502 43.5424 48.2736C43.7349 42.9952 44.5321 39.7787 46.5665 35.71C47.5574 33.7475 48.8917 31.9196 50.4715 30.3064C50.3982 30.1331 50.3191 29.9492 50.2347 29.7533L50.2345 29.7528C49.0926 27.6489 47.724 26.1144 45.4458 25.2076L45.4458 25.2076L45.4458 25.2076C44.3067 24.7542 42.8829 24.1875 41.5724 23.336C40.5466 22.5978 40.2038 21.8015 40.7705 20.3777C42.1888 17.6433 44.2347 15.8185 46.9082 14.9033C48.5007 14.2176 49.9246 14.7844 50.4969 16.6616C50.8845 18.2357 51.1645 19.7669 51.4293 21.2155L51.4293 21.2155C51.5952 22.1229 51.7552 22.9979 51.9319 23.8307Z" fill="white"/>
</svg>
